<svg xmlns="http://www.w3.org/2000/svg" width="45.651" height="42.398" viewBox="0 0 45.651 42.398">
  <g id="Group_259" data-name="Group 259" transform="translate(-493.44 -283.269)">
    <path id="Path_371" data-name="Path 371" d="M500.272,327.7a5.132,5.132,0,0,0,1.682-.244,5.518,5.518,0,0,0,2.092-1.311h0a5.515,5.515,0,0,0,1.625-3.922V292.8a2.129,2.129,0,0,0-2.129-2.129h-.086a2.129,2.129,0,0,0-2.129,2.129v28.257a1.885,1.885,0,0,1-1.627,1.907,1.814,1.814,0,0,1-2-1.8V297.91a2.13,2.13,0,0,0-2.13-2.129h0a2.129,2.129,0,0,0-2.129,2.129v23a6.791,6.791,0,0,0,6.79,6.79Z" transform="translate(0 -2.033)" fill="#002a3a"/>
    <path id="Path_372" data-name="Path 372" d="M541.208,283.269H516.975a3.015,3.015,0,0,0-3.015,3.015v33.908a9.13,9.13,0,0,1-1.825,5.475h25.3a6.79,6.79,0,0,0,6.79-6.79V286.284A3.015,3.015,0,0,0,541.208,283.269Zm-4.18,33.1H521.4a1.814,1.814,0,1,1,0-3.627h15.63a1.814,1.814,0,0,1,0,3.627Zm0-8.37H521.4a1.814,1.814,0,1,1,0-3.627h15.63a1.814,1.814,0,0,1,0,3.627Zm1.954-10.346a2.042,2.042,0,0,1-2.041,2.041H521.486a2.042,2.042,0,0,1-2.042-2.041v-3.529a2.041,2.041,0,0,1,2.042-2.041h15.454a2.041,2.041,0,0,1,2.041,2.041Z" transform="translate(-5.133)" fill="#002a3a"/>
  </g>
</svg>