<?xml version="1.0" encoding="utf-8"?>
<!-- Generator: Adobe Illustrator 25.0.0, SVG Export Plug-In . SVG Version: 6.00 Build 0)  -->
<svg version="1.1" id="Layer_1" xmlns="http://www.w3.org/2000/svg" xmlns:xlink="http://www.w3.org/1999/xlink" x="0px" y="0px"
	 viewBox="0 0 45 60" style="enable-background:new 0 0 45 60;" xml:space="preserve">
<g id="Layer_2_1_">
	<g id="Layer_1-2">
		<path d="M44,35.9c-1-0.8-2.5-0.7-3.4,0.2L25,51.7v-49c0.1-1.4-1-2.6-2.3-2.6S20.1,1,20,2.3c0,0.1,0,0.2,0,0.3v49L4.3,36.1
			c-0.9-0.9-2.4-1-3.4-0.2c-1.1,0.9-1.2,2.4-0.3,3.5c0,0.1,0.1,0.1,0.2,0.2l19.7,19.6c1.1,1.1,2.9,1.1,4,0l19.7-19.6
			c1-1,1-2.5,0-3.5C44.2,36,44.1,36,44,35.9z"/>
	</g>
</g>
</svg>
