<?xml version="1.0" encoding="utf-8"?>
<!-- Generator: Adobe Illustrator 25.0.0, SVG Export Plug-In . SVG Version: 6.00 Build 0)  -->
<svg version="1.1" id="Layer_1" xmlns="http://www.w3.org/2000/svg" xmlns:xlink="http://www.w3.org/1999/xlink" x="0px" y="0px"
	 viewBox="0 0 81.7 81.7" style="enable-background:new 0 0 81.7 81.7;" xml:space="preserve">
<style type="text/css">
	.st0{fill:#6D6E70;}
</style>
<g>
	<path class="st0" d="M40.8,4c20.3,0,36.8,16.5,36.8,36.8S61.1,77.7,40.8,77.7S4,61.1,4,40.8S20.5,4,40.8,4 M40.8,0
		C18.3,0,0,18.3,0,40.8s18.3,40.8,40.8,40.8s40.8-18.3,40.8-40.8S63.4,0,40.8,0L40.8,0z"/>
</g>
<path class="st0" d="M59.8,28v-4.1l-19,3.5l-19-3.5V28L17,27.1V57l23.8,4.4L64.6,57V27.1L59.8,28z M42.3,30.2l14.5-2.7v22.7
	l-14.5,2.6V30.2z M24.8,27.6l14.5,2.7V53l-14.5-2.6V27.6z M40.8,58.3L20,54.5V30.8l1.8,0.3v21.7l19,3.5l19-3.5V31.1l1.8-0.3v23.7
	L40.8,58.3z"/>
</svg>
