<svg version="1.1" xmlns="http://www.w3.org/2000/svg" xmlns:xlink="http://www.w3.org/1999/xlink" x="0px" y="0px"
	 viewBox="0 0 39.6 39.6" style="enable-background:new 0 0 39.6 39.6;" xml:space="preserve">
<g>
	<g id="Lines">
		<path class="ne-arrow-fill" d="M29.3,34.5l0.4-17.1L8.5,38.5C7,40,4.6,40,3,38.5c0,0,0,0,0,0l-1.9-1.8c-1.5-1.5-1.5-4,0-5.5L22.2,10
			L5.2,10.4c-2.2,0-4-1.7-4-3.9c0,0,0,0,0-0.1V3.9C1.2,1.8,2.9,0,5.1,0c0,0,0,0,0,0h30.6c2.2,0,3.9,1.8,3.9,3.9c0,0,0,0,0,0v30.6
			c0,2.1-1.7,3.9-3.9,3.9c0,0,0,0,0,0h-2.5C31,38.4,29.3,36.6,29.3,34.5z"/>
	</g>
</g>
</svg>
