<?xml version="1.0" encoding="utf-8"?>
<!-- Generator: Adobe Illustrator 25.0.0, SVG Export Plug-In . SVG Version: 6.00 Build 0)  -->
<svg version="1.1" id="Layer_1" xmlns="http://www.w3.org/2000/svg" xmlns:xlink="http://www.w3.org/1999/xlink" x="0px" y="0px"
	 viewBox="0 0 81.7 81.7" style="enable-background:new 0 0 81.7 81.7;" xml:space="preserve">
<style type="text/css">
	.st0{fill:#FFFFFF;}
</style>
<g>
	<path class="st0" d="M40.8,4c20.3,0,36.8,16.5,36.8,36.8S61.1,77.7,40.8,77.7S4,61.1,4,40.8S20.5,4,40.8,4 M40.8,0
		C18.3,0,0,18.3,0,40.8s18.3,40.8,40.8,40.8s40.8-18.3,40.8-40.8S63.4,0,40.8,0L40.8,0z"/>
</g>
<g>
	<path class="st0" d="M31.4,28.2l23,12.6l-23,12.9V28.2 M27.2,21.2v39.7l35.7-20L27.2,21.2L27.2,21.2z"/>
</g>
</svg>
