<svg xmlns="http://www.w3.org/2000/svg" width="464.771" height="148.969" viewBox="0 0 464.771 148.969">
  <g id="Group_547" data-name="Group 547" transform="translate(-862 -19)">
    <g id="Group_4" data-name="Group 4" transform="translate(862 19)">
      <g id="DevelopNS_Full-Color" transform="translate(0)">
        <path id="Path_1" data-name="Path 1" d="M151.909,340.617l-9.335-10.209c-1.495-1.628-3.217-3.622-4.591-5.244l-.063.032c.063,1.811.063,3.5.063,5v9.987H134.95V320.256h2.1l8.556,9.366c1.153,1.279,2.964,3.28,4.186,4.775l.063-.032c-.063-1.533-.063-3.249-.063-4.686v-9.43h3.027v20.36h-.906Z" transform="translate(-66.029 -197.848)" fill="#0092b4"/>
        <path id="Path_2" data-name="Path 2" d="M187.751,340.322A10.353,10.353,0,1,1,198.3,329.955a10.311,10.311,0,0,1-10.551,10.367m0-18.074a7.733,7.733,0,1,0,7.492,7.714,7.458,7.458,0,0,0-7.492-7.714" transform="translate(-81.523 -197.617)" fill="#0092b4"/>
        <path id="Path_3" data-name="Path 3" d="M229.768,340.462H228.8l-7.929-20.2h3.185l3.686,9.493c.532,1.374,1.127,3.059,1.653,4.75h.07c.526-1.659,1.089-3.312,1.653-4.75l3.686-9.493h2.869Z" transform="translate(-97.537 -197.852)" fill="#0092b4"/>
        <path id="Path_4" data-name="Path 4" d="M274,340.022l-2.153-5.155H264.1l-2.16,5.155H258.98l8.492-20.2h1.1l8.486,20.2ZM268.847,327.6a24.072,24.072,0,0,1-.842-2.438h-.063a19.493,19.493,0,0,1-.842,2.438l-1.969,4.87h5.687Z" transform="translate(-111.512 -197.69)" fill="#0092b4"/>
        <path id="Path_5" data-name="Path 5" d="M313.125,340.322a10.033,10.033,0,0,1-5.155-1.343l-.69-3.312a10.143,10.143,0,0,0,6,2.033c2.216,0,3.686-1.248,3.686-3.091,0-1.716-1.064-2.869-3.464-3.654-3.565-1.159-5.434-3.154-5.434-5.9,0-2.78,2.064-5.434,6.308-5.434a7.94,7.94,0,0,1,4.338,1.153l-.589,2.5a7.3,7.3,0,0,0-3.876-1.153c-2.027,0-3.28,1.247-3.28,2.717,0,1.311,1.127,2.375,3.217,3.091,3.464,1.191,5.807,3.033,5.807,6.4,0,3.559-2.369,5.991-6.865,5.991" transform="translate(-129.224 -197.617)" fill="#0092b4"/>
        <path id="Path_6" data-name="Path 6" d="M359.793,323.566a10.124,10.124,0,0,0-5-1.311c-3.9,0-8.024,2.527-8.024,7.745,0,5.155,4.028,7.713,8.024,7.713a10.849,10.849,0,0,0,5.5-1.247l-.621,2.907a10.447,10.447,0,0,1-5.212.969c-5.028,0-10.741-3.527-10.741-10.335,0-6.9,5.776-10.367,10.741-10.367a11.851,11.851,0,0,1,5.871,1.311Z" transform="translate(-142.587 -197.624)" fill="#0092b4"/>
        <path id="Path_7" data-name="Path 7" d="M392.571,340.322a10.353,10.353,0,1,1,10.551-10.367,10.311,10.311,0,0,1-10.551,10.367m0-18.074a7.733,7.733,0,1,0,7.492,7.714,7.458,7.458,0,0,0-7.492-7.714" transform="translate(-156.632 -197.617)" fill="#0092b4"/>
        <path id="Path_8" data-name="Path 8" d="M434.87,322.86v17.327h-3.033V322.86h-6.4v-2.59h15.832v2.59Z" transform="translate(-172.555 -197.855)" fill="#0092b4"/>
        <rect id="Rectangle_2" data-name="Rectangle 2" width="3.027" height="19.923" transform="translate(278.888 122.415)" fill="#0092b4"/>
        <path id="Path_9" data-name="Path 9" d="M502.425,340.022l-2.153-5.155h-7.745l-2.153,5.155H487.41l8.492-20.2H497l8.486,20.2ZM497.27,327.6a24.058,24.058,0,0,1-.842-2.438h-.063a19.473,19.473,0,0,1-.842,2.438l-1.97,4.87h5.687Z" transform="translate(-195.28 -197.69)" fill="#0092b4"/>
        <g id="Group_3" data-name="Group 3" transform="translate(0 10.943)">
          <g id="Group_1" data-name="Group 1">
            <path id="Path_10" data-name="Path 10" d="M77.328,182.323a31.7,31.7,0,0,0-19.005-6.377c-17.757,0-32.2,14.819-32.2,33.026S40.565,242,58.323,242a31.807,31.807,0,0,0,19.005-6.377V242H90.766V144.25H77.328Zm-.355,23.869v5.56a18.505,18.505,0,0,1-18.65,16.339c-10.563,0-18.53-8.22-18.53-19.119,0-10.7,7.967-18.764,18.53-18.764a18.338,18.338,0,0,1,18.65,15.984" transform="translate(-26.12 -144.25)" fill="#0091b3"/>
            <rect id="Rectangle_3" data-name="Rectangle 3" width="13.907" height="97.755" transform="translate(300.724 0)" fill="#0091b3"/>
            <path id="Path_11" data-name="Path 11" d="M690.383,192.99a31.772,31.772,0,0,0-19.005,6.384V192.99H657.94v97.754h13.438V252.671a31.7,31.7,0,0,0,19.005,6.377c17.757,0,32.2-14.819,32.2-33.032s-14.446-33.026-32.2-33.026m18.53,33.026c0,10.7-7.967,18.764-18.53,18.764a18.347,18.347,0,0,1-18.65-15.984v-5.56a18.505,18.505,0,0,1,18.65-16.339c10.563,0,18.53,8.22,18.53,19.119" transform="translate(-257.815 -162.124)" fill="#0091b3"/>
            <path id="Path_12" data-name="Path 12" d="M299.512,259.489l27.947-67.559-14.306.032-17.9,44.153-18.011-44.071-14.439.032,28.251,67.414Z" transform="translate(-112.913 -161.735)" fill="#0091b3"/>
            <path id="Path_13" data-name="Path 13" d="M199.126,238.582a19.8,19.8,0,0,1-15,6.941,20.6,20.6,0,0,1-19.385-14.35h52.588l-.089-4.5c-.412-20.8-14.762-36.49-33.387-36.49-18.41,0-33.387,15.4-33.387,34.331a35.394,35.394,0,0,0,.652,6.707l.405,2.1.063-.032a33.2,33.2,0,0,0,62.791,5.883l.266-.583Zm-15.262-35.2c8.328,0,15.091,5.364,18.448,14.471H164.763c4.218-13.381,15.579-14.471,19.1-14.471" transform="translate(-71.721 -161.093)" fill="#0091b3"/>
            <path id="Path_14" data-name="Path 14" d="M420.676,238.586a19.8,19.8,0,0,1-15,6.941,20.6,20.6,0,0,1-19.385-14.35h52.588l-.089-4.5c-.412-20.8-14.762-36.49-33.387-36.49-18.41,0-33.387,15.4-33.387,34.331a35.391,35.391,0,0,0,.652,6.707l.405,2.1.063-.032a33.2,33.2,0,0,0,62.791,5.877l.266-.583Zm-15.262-35.2c8.328,0,15.091,5.364,18.448,14.471H386.32c4.211-13.388,15.573-14.471,19.094-14.471" transform="translate(-152.965 -161.097)" fill="#0091b3"/>
            <path id="Path_15" data-name="Path 15" d="M558.446,225.924a20.794,20.794,0,0,0,13.084,26.307c10.715,3.464,22.323-2.691,25.889-13.717s-2.255-22.811-12.97-26.269A20.8,20.8,0,0,0,558.446,225.924Z" transform="translate(-220.947 -168.827)" fill="#0091b3"/>
          </g>
        </g>
        <g id="Group_2" data-name="Group 2" transform="translate(333.313)">
          <path id="Path_16" data-name="Path 16" d="M597.778,168.526a32.555,32.555,0,0,1,13.895,8.866l-.063-50.423L582.37,167.387A32.868,32.868,0,0,1,597.778,168.526Z" transform="translate(-563.416 -126.97)" fill="#002a3a"/>
          <path id="Path_17" data-name="Path 17" d="M565.6,291.523a32.837,32.837,0,0,1-13.16-8.093l.063,49.884,29.549-40.854A32.517,32.517,0,0,1,565.6,291.523Z" transform="translate(-552.44 -184.346)" fill="#002a3a"/>
        </g>
      </g>
    </g>
  </g>
</svg>